<svg xmlns="http://www.w3.org/2000/svg" version="1.1" xmlns:xlink="http://www.w3.org/1999/xlink" xmlns:svgjs="http://svgjs.dev/svgjs" width="1500" height="935" viewBox="0 0 1500 935"><g transform="matrix(1,0,0,1,-0.9090909090909918,0.3785425101214628)"><svg viewBox="0 0 396 247" data-background-color="#ffffff" preserveAspectRatio="xMidYMid meet" height="935" width="1500" xmlns="http://www.w3.org/2000/svg" xmlns:xlink="http://www.w3.org/1999/xlink"><g id="tight-bounds" transform="matrix(1,0,0,1,0.2400000000000091,-0.09999999999999432)"><svg viewBox="0 0 395.52 247.2" height="247.2" width="395.52"><g><svg></svg></g><g><svg viewBox="0 0 395.52 247.2" height="247.2" width="395.52"><g transform="matrix(1,0,0,1,115.25567381974248,47.215199999999996)"><svg viewBox="0 0 165.00865236051501 152.7696" height="152.7696" width="165.00865236051501"><g><svg viewBox="0 0 165.00865236051501 152.7696" height="152.7696" width="165.00865236051501"><g><svg viewBox="0 0 165.00865236051501 152.7696" height="152.7696" width="165.00865236051501"><g><svg viewBox="0 0 165.00865236051501 152.7696" height="152.7696" width="165.00865236051501"><g id="textblocktransform"><svg viewBox="0 0 165.00865236051501 152.7696" height="152.7696" width="165.00865236051501" id="textblock"><g><svg viewBox="0 0 165.00865236051501 152.7696" height="152.7696" width="165.00865236051501"><g transform="matrix(1,0,0,1,0,0)"><svg width="165.00865236051501" viewBox="0 -34.95 37.75 34.95" height="152.7696" data-palette-color="#1ebbd7"><path d="M0-2.15L4.85-2.15 4.85-34.95 10.75-34.95 10.75-17.9 26.75-34.95 34.25-34.95 20.2-19.65 32.9-2.1 32.9-2.15 37.75-2.15 37.75 0 27.45 0 15.85-15.3 10.75-9.8 10.75 0 0 0 0-2.15Z" opacity="1" transform="matrix(1,0,0,1,0,0)" fill="#1ebbd7" class="wordmark-text-0" data-fill-palette-color="primary" id="text-0"></path></svg></g></svg></g></svg></g></svg></g></svg></g></svg></g></svg></g><path d="M297.557 41.215L297.557 0 50.357 0 50.357 247.2 297.557 247.2 297.557 205.985 283.78 205.985 283.78 233.423 64.134 233.423 64.134 13.777 283.78 13.777 283.78 41.215Z" fill="#1ebbd7" stroke="transparent" data-fill-palette-color="tertiary"></path></svg></g><defs></defs></svg><rect width="395.52" height="247.2" fill="none" stroke="none" visibility="hidden"></rect></g></svg></g></svg>